<svg width="48" height="48" viewBox="0 0 48 48" fill="none" xmlns="http://www.w3.org/2000/svg">
<circle cx="24" cy="24" r="24" fill="#F5EEE6"/>
<path d="M14.5262 35.2404L11.4488 22.8124C11.2569 22.0374 12.0059 21.3611 12.7573 21.6308L18.5727 23.7184C19.0271 23.8815 19.5332 23.6967 19.7755 23.2792L23.1351 17.4903C23.5205 16.8262 24.4795 16.8262 24.8649 17.4903L28.2245 23.2792C28.4668 23.6967 28.9729 23.8815 29.4273 23.7184L35.2427 21.6308C35.9941 21.3611 36.7431 22.0374 36.5512 22.8124L33.4738 35.2404C33.3633 35.6866 32.9628 36 32.5031 36H15.4969C15.0372 36 14.6367 35.6866 14.5262 35.2404Z" fill="#FCF8F3" stroke="#424928"/>
<path d="M14 31L26 31" stroke="#424928" stroke-linecap="round"/>
<circle cx="38" cy="18" r="2" stroke="#424928"/>
<circle cx="24" cy="13" r="2" stroke="#424928"/>
<circle cx="10" cy="18" r="2" stroke="#424928"/>
</svg>
