<svg width="48" height="48" viewBox="0 0 48 48" fill="none" xmlns="http://www.w3.org/2000/svg">
<circle cx="24" cy="24" r="24" fill="#F5EEE6"/>
<path d="M20.1509 11.3493L20.4448 10.9448L20.1509 11.3493L21.9591 12.6631L21.2684 14.7889C21.0888 15.3416 21.7215 15.8013 22.1917 15.4597L24 14.1459L25.8083 15.4597C26.2785 15.8013 26.9112 15.3416 26.7316 14.7889L26.0409 12.6631L27.8491 11.3493L27.5552 10.9448L27.8491 11.3493C28.3194 11.0077 28.0777 10.2639 27.4965 10.2639H25.2613L24.5706 8.1382C24.391 7.58542 23.609 7.5854 23.4294 8.1382L22.7387 10.2639H20.5035C19.9223 10.2639 19.6806 11.0077 20.1509 11.3493Z" fill="#FCF8F3" stroke="#424928"/>
<path d="M30.1509 21.3493L30.4448 20.9448L30.1509 21.3493L31.9591 22.6631L31.2684 24.7889C31.0888 25.3416 31.7215 25.8013 32.1917 25.4597L34 24.1459L35.8083 25.4597C36.2785 25.8013 36.9112 25.3416 36.7316 24.7889L36.0409 22.6631L37.8491 21.3493L37.5552 20.9448L37.8491 21.3493C38.3194 21.0077 38.0777 20.2639 37.4965 20.2639H35.2613L34.5706 18.1382C34.391 17.5854 33.609 17.5854 33.4294 18.1382L32.7387 20.2639H30.5035C29.9223 20.2639 29.6806 21.0077 30.1509 21.3493Z" fill="#FCF8F3" stroke="#424928"/>
<path d="M6 31H42" stroke="#424928" stroke-linecap="round"/>
<path d="M10 36H38" stroke="#424928" stroke-linecap="round"/>
<path d="M17 41H31" stroke="#424928" stroke-linecap="round"/>
<path d="M10.1509 21.3493L10.4448 20.9448L10.1509 21.3493L11.9591 22.6631L11.2684 24.7889C11.0888 25.3416 11.7215 25.8013 12.1917 25.4597L14 24.1459L15.8083 25.4597C16.2785 25.8013 16.9112 25.3416 16.7316 24.7889L16.0409 22.6631L17.8491 21.3493L17.5552 20.9448L17.8491 21.3493C18.3194 21.0077 18.0777 20.2639 17.4965 20.2639H15.2613L14.5706 18.1382C14.391 17.5854 13.609 17.5854 13.4294 18.1382L12.7387 20.2639H10.5035C9.92231 20.2639 9.68064 21.0077 10.1509 21.3493Z" fill="#FCF8F3" stroke="#424928"/>
</svg>
