<svg width="48" height="48" viewBox="0 0 48 48" fill="none" xmlns="http://www.w3.org/2000/svg">
<circle cx="24" cy="24" r="24" fill="#F5EEE6"/>
<path d="M9.25354 37.5307C7.97654 36.2537 7.74072 33.9355 9.39444 32.2818C11.0482 30.6281 13.3663 30.8639 14.6433 32.1409C16.8781 34.3756 16.4179 39.3052 16.4179 39.3052C16.4179 39.3052 11.4883 39.7654 9.25354 37.5307Z" fill="#FCF8F3" stroke="#424928"/>
<path d="M24 41C33.3888 41 41 33.3888 41 24C41 14.6112 33.3888 7 24 7C14.6112 7 7 14.6112 7 24C7 28.7568 8.5 32.5 13 36" stroke="#424928"/>
<path d="M32 24C32 19.5817 28.4183 16 24 16C21.6213 16 19.485 17.0382 18.0196 18.6862C17.9198 18.7985 17.8123 18.9039 17.694 18.9965L17.1429 19.4286M16 24C16 28.4183 19.5817 32 24 32C26.2385 32 28.2623 31.0806 29.7143 29.5988L30.5143 28.8M17.1429 16V19.4286M17.1429 19.4286H20.5714M30.8571 32V28.5714H27.4286" stroke="#424928"/>
</svg>
